# xmcd CD database file
#
# Track frame offsets:
#	150
#	49512
#	74082
#	94467
#	116237
#	142637
#	163545
#	187397
#
# Disc length: 2634 seconds
#
# Revision: 0
# Processed by: cddbd v1.5.1PL2 Copyright (c) Steve Scherf et al.
# Submitted via: CDex 1.50
#
DISCID=770a4808
DTITLE=Michel Sardaby - Plays Classics and Ballads
DYEAR=1996
DGENRE=Jazz
TTITLE0=Old Folks
TTITLE1=I Mean You
TTITLE2=Isfahan
TTITLE3=Movin' along
TTITLE4=Something to Think About
TTITLE5=Alont Together
TTITLE6=Don't Delight
TTITLE7=Duke Ellington'S Sound Of Love
EXTD=YEAR: 1996
EXTT0=
EXTT1=
EXTT2=
EXTT3=
EXTT4=
EXTT5=
EXTT6=
EXTT7=
PLAYORDER=
